<svg width="240" height="60" viewBox="0 0 240 60" fill="none" xmlns="http://www.w3.org/2000/svg">
  <!-- Icon: Cart + Chat -->
  <g transform="translate(10,10)">
    <rect x="0" y="0" width="40" height="40" rx="8" fill="#10B981"/>
    <!-- Shopping Cart -->
    <path d="M12 16H28L26 24H14L12 16Z" fill="white"/>
    <circle cx="16" cy="28" r="2" fill="#10B981"/>
    <circle cx="24" cy="28" r="2" fill="#10B981"/>
    <!-- Chat Bubble -->
    <path d="M20 10C16 10 13 12.5 13 15.5C13 18.5 16 21 20 21C21 21 22 20.7 23 20.2L26 22V19C27 17.5 27 15.5 26 14C24.5 11.5 22 10 20 10Z" fill="white"/>
  </g>

  <!-- Text -->
  <text x="60" y="35" font-family="Segoe UI, sans-serif" font-size="20" fill="#1F2937" font-weight="600">
    Shilpo Kotha
  </text>
  <text x="60" y="52" font-family="Segoe UI, sans-serif" font-size="12" fill="#6B7280" font-weight="500">
    Admin Panel
  </text>
</svg>
