<svg version="1.0" xmlns="http://www.w3.org/2000/svg" width="100" height="66.667" viewBox="0 0 75 50"><path d="M41.24 8.54c-0.103 0.024 -0.205 0.068 -0.234 0.107 -0.054 0.078 -0.015 0.659 0.059 0.85 0.024 0.068 0.098 0.142 0.156 0.166 0.063 0.024 0.469 0.059 0.908 0.078l0.796 0.034 0.112 0.229c0.283 0.557 1.938 4.653 2.476 6.128 0.186 0.508 0.396 1.03 0.469 1.162 0.166 0.303 0.439 0.552 0.791 0.713 0.239 0.112 0.361 0.132 1.03 0.161 1.03 0.044 5.796 0 5.986 -0.059 0.122 -0.039 0.181 -0.103 0.278 -0.327 0.22 -0.498 0.225 -0.64 0.024 -0.747 -0.073 -0.039 -1.035 -0.054 -3.33 -0.049 -2.036 0.005 -3.281 -0.01 -3.359 -0.039 -0.21 -0.078 -0.41 -0.327 -0.503 -0.635l-0.034 -0.117 2.188 0.024c1.206 0.01 2.886 0.01 3.73 -0.005l1.538 -0.034 0.249 -0.127c0.254 -0.137 0.503 -0.376 0.625 -0.62 0.039 -0.073 0.239 -0.596 0.439 -1.157s0.542 -1.504 0.762 -2.095c0.601 -1.611 0.615 -1.655 0.547 -1.807 -0.029 -0.068 -0.112 -0.146 -0.186 -0.171 -0.078 -0.029 -2.163 -0.049 -5.664 -0.049 -4.585 0 -5.547 0.01 -5.566 0.063 -0.015 0.039 0.093 0.313 0.229 0.615l0.259 0.547 4.678 -0.015c2.573 -0.01 4.678 0 4.678 0.02s-0.054 0.181 -0.122 0.366c-0.063 0.181 -0.298 0.85 -0.513 1.479 -0.22 0.63 -0.43 1.201 -0.464 1.27 -0.083 0.156 -0.244 0.303 -0.464 0.42 -0.161 0.088 -0.366 0.093 -3.789 0.107l-3.618 0.015 -0.2 -0.479c-0.107 -0.264 -0.352 -0.874 -0.537 -1.357 -1.133 -2.915 -1.816 -4.482 -2.026 -4.614 -0.122 -0.078 -2.07 -0.122 -2.397 -0.054M13.584 15.063c0.01 0.024 0.386 0.781 0.835 1.675L15.234 18.359l4.224 -0.01c2.324 -0.01 4.224 -0.01 4.224 -0.005 0 0.024 -4.258 5.903 -5.41 7.461l-0.396 0.537 1.343 0.024 1.338 0.024 -0.254 0.317c-0.142 0.176 -0.781 0.967 -1.431 1.758 -1.934 2.368 -3.184 3.945 -4.468 5.64 -0.415 0.547 -0.532 0.737 -0.474 0.747 0.044 0.01 0.361 -0.059 0.708 -0.156 3.101 -0.845 7.563 -1.455 14.512 -1.982 0.835 -0.063 1.353 -0.127 1.377 -0.161 0.015 -0.029 0.103 -0.308 0.186 -0.615 0.083 -0.313 0.386 -1.392 0.664 -2.397l0.513 -1.831 0.513 -0.942c0.283 -0.518 0.913 -1.626 1.396 -2.466 2.93 -5.073 2.715 -4.663 3.252 -6.113 0.293 -0.786 1.084 -3.076 1.084 -3.13 0 -0.01 -0.576 -0.02 -1.284 -0.02h-1.284l-0.527 1.401c-0.62 1.65 -1.064 2.593 -2.056 4.36 -0.396 0.713 -0.908 1.636 -1.143 2.051 -0.391 0.713 -0.42 0.747 -0.454 0.61 -0.093 -0.366 -0.347 -3.311 -0.337 -3.931 0.01 -0.923 0.181 -3.145 0.327 -4.258l0.034 -0.234h-2.686l-0.034 0.278c-0.107 0.986 -0.322 3.838 -0.322 4.292 0 0.19 0.205 2.002 0.459 4.028l0.464 3.682 -0.2 0.586c-0.112 0.322 -0.415 1.44 -0.674 2.485l-0.479 1.899 -0.093 -0.215c-0.054 -0.117 -0.259 -0.63 -0.459 -1.138l-0.361 -0.918 -1.245 0.034c-2.324 0.059 -4.907 0.112 -4.917 0.103 -0.005 -0.005 0.4 -0.522 0.903 -1.157 0.503 -0.63 1.553 -1.943 2.329 -2.925 0.781 -0.977 1.421 -1.792 1.431 -1.812s-0.552 -0.039 -1.24 -0.044c-0.693 0 -1.265 -0.01 -1.274 -0.02 -0.01 -0.005 0.073 -0.137 0.176 -0.288 0.43 -0.605 2.632 -3.853 3.486 -5.132 0.61 -0.903 0.913 -1.401 0.913 -1.489 0 -0.249 0.098 -1.792 0.127 -2.017l0.029 -0.234 -7.085 -0.01c-4.707 -0.01 -7.085 0 -7.075 0.034"/><path d="M39.141 15.073c-0.01 0.049 -0.454 2.1 -0.981 4.556s-1.255 5.83 -1.611 7.495 -0.752 3.506 -0.879 4.092 -0.22 1.074 -0.21 1.084 0.615 0.005 1.343 -0.01l1.328 -0.029 0.073 -0.322c0.039 -0.176 0.337 -1.577 0.664 -3.105 0.327 -1.533 0.601 -2.788 0.601 -2.788 0.02 -0.02 1.069 -0.122 1.084 -0.107 0.01 0.01 0.2 0.664 0.43 1.455s0.63 2.183 0.894 3.086l0.479 1.65h1.177c0.649 0 1.606 -0.015 2.129 -0.034l0.947 -0.029 0.576 -2.666c0.317 -1.465 0.601 -2.7 0.625 -2.749 0.049 -0.093 0.352 -0.122 0.474 -0.049 0.034 0.024 0.532 1.289 1.104 2.813 0.576 1.523 1.055 2.778 1.064 2.788 0.02 0.024 2.056 0.122 2.075 0.103 0.005 -0.005 0.337 -0.747 0.737 -1.641l0.728 -1.636 1.641 -0.015 1.641 -0.015 0.024 0.161c0.015 0.088 0.107 0.918 0.2 1.846s0.186 1.797 0.2 1.929l0.029 0.244 0.933 0.342c0.518 0.186 1.099 0.396 1.294 0.469l0.352 0.132v-0.107c0 -0.059 -0.044 -0.425 -0.098 -0.815 -0.117 -0.84 -0.649 -4.766 -1.953 -14.473 -0.405 -3.027 -0.488 -3.608 -0.513 -3.579 -0.049 0.054 -5.938 12.988 -6.128 13.457 -0.034 0.088 -0.078 0.142 -0.098 0.122 -0.049 -0.049 -1.27 -3.247 -1.27 -3.315 0 -0.029 0.19 -0.166 0.43 -0.308 1.157 -0.688 2.007 -1.626 2.383 -2.632 0.068 -0.181 0.244 -0.732 0.396 -1.23 0.239 -0.801 0.264 -0.942 0.244 -1.23 -0.024 -0.396 -0.171 -0.649 -0.483 -0.854 -0.176 -0.117 -0.249 -0.137 -0.576 -0.137s-0.4 0.02 -0.576 0.137c-0.112 0.073 -0.264 0.225 -0.337 0.337 -0.127 0.19 -0.137 0.239 -0.142 0.742 -0.005 0.483 -0.024 0.601 -0.181 1.079 -0.098 0.293 -0.264 0.679 -0.361 0.85 -0.249 0.42 -0.811 0.933 -1.25 1.152 -0.337 0.166 -1.333 0.454 -1.387 0.4 -0.015 -0.015 0.107 -0.63 0.269 -1.362 0.376 -1.689 0.42 -1.943 0.386 -2.285 -0.059 -0.64 -0.503 -1.074 -1.094 -1.074 -0.41 0.005 -0.757 0.22 -0.942 0.591 -0.088 0.166 -0.098 0.269 -0.088 0.791l0.015 0.596 -1.123 5.088c-0.615 2.798 -1.128 5.078 -1.138 5.068 -0.024 -0.02 -0.391 -1.279 -1.265 -4.316 -0.503 -1.738 -0.522 -1.826 -0.435 -1.88 0.298 -0.176 0.894 -0.654 1.201 -0.962 0.562 -0.566 0.903 -1.133 1.138 -1.875 0.156 -0.498 0.498 -2.036 0.576 -2.568l0.059 -0.41 -0.498 -1.333c-0.273 -0.732 -0.547 -1.436 -0.61 -1.563 -0.259 -0.508 -0.708 -0.884 -1.304 -1.089 -0.298 -0.103 -0.4 -0.107 -2.349 -0.127 -1.929 -0.02 -2.036 -0.015 -2.061 0.068m3.433 3.047c0.137 0.029 0.317 0.098 0.4 0.156 0.454 0.313 0.483 0.61 0.171 1.963 -0.298 1.294 -0.396 1.611 -0.596 1.914 -0.273 0.405 -0.786 0.815 -1.265 1.001 -0.181 0.073 -1.191 0.259 -1.221 0.225 -0.01 -0.01 0.2 -1.011 0.464 -2.231s0.522 -2.412 0.566 -2.651l0.088 -0.43h0.576c0.313 0 0.684 0.024 0.815 0.054m14.287 6.499c0.093 0.962 0.171 1.768 0.171 1.797s-0.342 0.049 -1.001 0.049c-0.552 0 -1.001 -0.005 -1.001 -0.015s0.112 -0.264 0.249 -0.571 0.454 -1.045 0.713 -1.636c0.522 -1.201 0.659 -1.489 0.679 -1.416 0.01 0.024 0.093 0.835 0.19 1.792"/><path d="M38.94 33.154c-7.021 0.273 -12.686 0.991 -17.065 2.173 -1.235 0.337 -2.5 0.708 -2.554 0.752 -0.02 0.02 0.215 0.073 0.513 0.122 2.261 0.352 4.302 0.903 5.43 1.475l0.532 0.273 0.64 -0.249c1.875 -0.718 3.613 -1.226 5.947 -1.738 4.839 -1.055 10.264 -1.592 16.763 -1.67 2.627 -0.029 5.107 0.024 7.349 0.161 1.216 0.073 3.701 0.293 3.882 0.342 0.068 0.02 0.083 0.015 0.049 -0.02 -0.063 -0.068 -1.753 -0.415 -3.027 -0.62 -2.69 -0.439 -6.196 -0.757 -10.547 -0.952 -1.499 -0.068 -6.563 -0.098 -7.91 -0.049"/></svg>